<svg xmlns="http://www.w3.org/2000/svg" viewBox="0 0 512 512">
    <rect x="64" y="42.667" width="405.333" height="448" rx="42.667" ry="42.667" style="fill:#079cff"/>
    <path d="M106.667 21.333h298.666A42.667 42.667 0 0 1 448 64v320a42.667 42.667 0 0 1-42.667 42.667H64V64a42.667 42.667 0 0 1 42.667-42.667z"
          style="fill:#079cff"/>
    <rect x="149.333" y="384" width="256" height="21.333" rx="10.667" ry="10.667" style="fill:#5cbeff"/>
    <rect x="64" y="64" width="42.667" height="405.333" rx="21.333" ry="21.333" style="fill:#0784ff"/>
    <rect x="64" y="341.333" width="42.667" height="85.333" rx="21.333" ry="21.333" style="fill:#005eee"/>
    <path d="M405.333 426.667H106.667a21.333 21.333 0 1 0 0 42.666h298.666A42.667 42.667 0 0 0 448 426.667V384a42.667 42.667 0 0 1-42.667 42.667z"
          style="fill:#eff2ff"/>
    <rect x="128" y="42.667" width="21.333" height="384" rx="10.667" ry="10.667" style="fill:#005eee"/>
    <rect x="149.333" y="42.667" width="21.333" height="362.667" rx="10.667" ry="10.667" style="fill:#5cbeff"/>
    <path d="M460.383 449.39a10.655 10.655 0 0 0-13.76 6.183 21.457 21.457 0 0 1-19.956 13.76h-320a21.333 21.333 0 1 1 0-42.666h288a10.667 10.667 0 0 0 0-21.334h-288a42.667 42.667 0 0 0 0 85.334h320.148c.016 0 .03 0 .046-.002H427.155l.056-.002h.064l.02-.002h.145c.013-.002.027-.002.04-.002h.025l.044-.001h.017c.021-.002.042-.002.062-.002l.018-.001h.044a.142.142 0 0 1 .024-.001.39.39 0 0 0 .039-.002h.024l.05-.001h.013c.018-.001.04-.001.058-.003h.064l.022-.002.043-.001h.02l.06-.003h.017l.045-.001.022-.002.043-.001h.02a.923.923 0 0 1 .06-.003h.01a.728.728 0 0 1 .054-.002l.02-.001.043-.002.02-.001.05-.001.013-.002.06-.002h.02c.013-.002.029-.002.043-.003a.126.126 0 0 0 .022-.001l.042-.002h.02l.062-.003h.01c.016-.002.033-.003.05-.003a.158.158 0 0 1 .025-.001l.04-.003.02-.001.056-.003H429l.063-.004.016-.001c.016 0 .03-.001.046-.003l.02-.001c.018 0 .033-.001.052-.003h.007l.066-.003.007-.002.055-.002.018-.002.043-.002.021-.002.059-.003h.005l.058-.004.02-.002a.505.505 0 0 1 .044-.002l.019-.002.049-.004h.014l.062-.005.013-.001c.016-.001.03-.003.048-.003l.02-.002.046-.003.016-.001a.98.98 0 0 0 .06-.005h.01l.055-.004.014-.002.05-.003.015-.002.057-.005h.006l.06-.005.018-.001.047-.004.02-.002.043-.004h.019a.856.856 0 0 1 .06-.006l.015-.001.046-.004.022-.003.04-.004.022-.001a.644.644 0 0 0 .05-.005l.013-.002c.02 0 .039-.002.058-.005l.017-.001.045-.004.02-.003.047-.004h.015l.06-.007.014-.002.047-.004a.144.144 0 0 1 .023-.002l.038-.004.025-.003.054-.005.016-.003.047-.003a.144.144 0 0 1 .025-.003l.036-.004a.177.177 0 0 1 .026-.003l.04-.005.019-.001.058-.007.022-.002.04-.004a.162.162 0 0 1 .023-.003l.042-.005.018-.001.06-.008.014-.001.048-.005.018-.003.045-.005.018-.002a.881.881 0 0 1 .055-.006l.006-.001.06-.008.018-.002a.51.51 0 0 1 .045-.005l.018-.002a.57.57 0 0 1 .047-.006l.017-.002.058-.008.017-.001c.013-.003.029-.004.042-.005l.025-.004a.43.43 0 0 0 .04-.006l.02-.002a.815.815 0 0 0 .055-.007l.008-.001.056-.008a.113.113 0 0 0 .021-.002.352.352 0 0 0 .04-.006l.024-.002.043-.007.015-.001c.02-.003.04-.005.06-.01h.016l.046-.007.02-.003.04-.006.022-.003.057-.008h.013l.048-.009a.128.128 0 0 0 .022-.002.355.355 0 0 1 .04-.005l.02-.004.046-.007.015-.002.059-.008.018-.003.04-.006.025-.004.04-.005.02-.004.057-.008.02-.004.04-.005.021-.004.042-.007.02-.002.12-.02.019-.002.041-.007.021-.004.042-.006.018-.003.059-.01.02-.003c.01-.003.025-.004.037-.007l.026-.003.039-.007.02-.004.049-.008.025-.004.043-.007.024-.004.034-.006a.154.154 0 0 1 .026-.005.408.408 0 0 1 .04-.006l.019-.004.057-.01.021-.003.038-.007.023-.005a.379.379 0 0 0 .038-.006l.023-.004a.68.68 0 0 0 .055-.01l.022-.005a.463.463 0 0 0 .038-.006l.025-.004a.323.323 0 0 1 .038-.007l.022-.005.041-.008.019-.002.056-.01.02-.004.04-.008.023-.004.036-.008.023-.004.054-.01.026-.004.034-.008.026-.004.035-.008.024-.004a.672.672 0 0 0 .044-.009.23.23 0 0 0 .026-.005l.044-.008.024-.005.035-.007.025-.005.035-.008a.23.23 0 0 0 .026-.005c.017-.002.034-.006.052-.01l.03-.005a.23.23 0 0 1 .026-.006l.034-.007a.15.15 0 0 0 .023-.006.308.308 0 0 0 .034-.006l.032-.007.046-.009a.247.247 0 0 1 .03-.006l.03-.007a.227.227 0 0 0 .029-.006l.03-.006.035-.007a.122.122 0 0 0 .02-.006c.019-.002.038-.007.055-.01l.026-.006.033-.007.027-.006a.289.289 0 0 0 .033-.007l.024-.005c.017-.004.038-.01.055-.012l.02-.005.039-.008.024-.005a.317.317 0 0 1 .034-.008l.025-.005a.397.397 0 0 1 .038-.01l.034-.007.041-.01.024-.004.034-.008.026-.007.037-.008.021-.005.054-.011.024-.007.034-.008.025-.005.035-.008.025-.006.05-.012.018-.004.044-.01.022-.006.039-.009a.098.098 0 0 1 .02-.005.462.462 0 0 0 .041-.01l.018-.004c.019-.004.037-.01.055-.013l.022-.005.035-.01a.208.208 0 0 0 .028-.006l.032-.008a.152.152 0 0 1 .024-.005l.054-.014.02-.004.039-.01.025-.007.03-.007.028-.008.033-.007a.373.373 0 0 1 .036-.01.459.459 0 0 1 .04-.01l.03-.008.027-.006.031-.008.025-.007.032-.007.051-.015a.172.172 0 0 0 .025-.006c.01-.003.02-.004.031-.008l.03-.008a.275.275 0 0 0 .027-.006l.03-.008.028-.008a.706.706 0 0 0 .05-.013l.03-.008.028-.008a.208.208 0 0 1 .027-.006c.01-.004.02-.005.03-.01a.202.202 0 0 0 .03-.007l.026-.007.05-.014.032-.008.026-.006a.284.284 0 0 1 .031-.01l.025-.006a.201.201 0 0 0 .03-.009l.033-.008a.586.586 0 0 1 .045-.013l.03-.008.027-.007a.283.283 0 0 1 .032-.01l.024-.006.037-.01.032-.01.04-.011a.219.219 0 0 0 .032-.01.157.157 0 0 0 .023-.006.302.302 0 0 0 .033-.009l.025-.006.031-.01.02-.006c.022-.005.04-.01.06-.017l.025-.007.03-.009.026-.007a.283.283 0 0 0 .032-.01l.024-.006.051-.016.029-.008.03-.009.027-.007a.262.262 0 0 0 .03-.01l.026-.007.03-.008.05-.016.024-.008.034-.009.025-.008.031-.009.026-.009.03-.008.05-.015c.009-.003.019-.007.027-.008l.031-.01a.158.158 0 0 0 .024-.007l.03-.01.024-.007.074-.023.006-.002.037-.011.017-.006.035-.011.02-.005.035-.012.01-.003.072-.023.02-.005c.011-.004.022-.008.032-.01l.026-.01.029-.01.03-.008.036-.012.04-.013a.242.242 0 0 0 .028-.01l.026-.007.031-.01.024-.008.03-.01.039-.012a.364.364 0 0 1 .04-.013l.026-.01.029-.008a131.366 131.366 0 0 1 .054-.019l.034-.011.04-.013a.293.293 0 0 1 .032-.01c.01-.005.02-.007.03-.011l.025-.008.03-.01.023-.008c.025-.01.047-.016.073-.025l.008-.003.03-.01.026-.01.027-.008a.272.272 0 0 0 .03-.01l.026-.01a.243.243 0 0 1 .029-.009l.05-.018.025-.008.029-.01.027-.01.029-.01.023-.008.06-.02.018-.007.033-.012a.173.173 0 0 0 .023-.009.292.292 0 0 0 .032-.01l.022-.008.032-.012.016-.005c.02-.008.042-.016.062-.022a.113.113 0 0 0 .023-.01l.032-.01.022-.009.031-.01a.174.174 0 0 0 .024-.01l.056-.019.022-.009.034-.012.018-.006a.397.397 0 0 1 .037-.013l.015-.007.117-.043.019-.006c.011-.004.023-.01.034-.013l.019-.007.034-.013.02-.008.06-.022.019-.008.034-.011.02-.008a.261.261 0 0 1 .034-.013l.015-.005.083-.033a.362.362 0 0 0 .034-.013.136.136 0 0 0 .02-.008l.032-.011.022-.01a.221.221 0 0 0 .031-.011l.02-.008.065-.025.014-.005.037-.014.015-.007.036-.013.015-.006.076-.03.006-.003a.423.423 0 0 0 .037-.014l.017-.007c.011-.005.022-.007.033-.013l.02-.007.117-.047.013-.006.037-.014.017-.006c.011-.006.023-.01.035-.015l.01-.005.074-.03.012-.004a.372.372 0 0 1 .034-.014l.02-.008.035-.014.011-.005.12-.05.016-.006.038-.016.009-.003.13-.054.005-.003.042-.017.006-.003.177-.075.008-.003.04-.018.01-.004.128-.054.004-.003a.376.376 0 0 0 .04-.017l.011-.004.04-.018h.002l.133-.059.007-.002c.013-.007.028-.012.04-.019l.009-.003c.041-.019.084-.037.126-.055l.008-.004a.358.358 0 0 0 .039-.018l.012-.004.037-.018.006-.002.08-.036.008-.004.04-.017.01-.005.037-.017.01-.005.122-.055.013-.005a.433.433 0 0 1 .035-.017l.014-.007.121-.054.01-.006.033-.015a.08.08 0 0 0 .019-.01l.035-.015.005-.003.125-.058.012-.005c.013-.007.026-.012.037-.019l.01-.003.118-.056.016-.008c.011-.006.023-.01.035-.017l.013-.005.038-.019v-.001l.09-.042a.379.379 0 0 0 .04-.02l.01-.004.037-.019.013-.006.116-.056.013-.007c.013-.005.023-.011.035-.017l.015-.007.116-.058.012-.005.034-.017.017-.008.034-.017.013-.006.078-.04h.001l.035-.017.014-.008a.475.475 0 0 0 .037-.018l.009-.004.121-.063.01-.004.037-.02.01-.004c.013-.007.025-.012.038-.02l.005-.003c.042-.02.084-.041.125-.063l.007-.004.039-.02.01-.005.123-.064.005-.002a.314.314 0 0 1 .036-.019l.015-.007a9.95 9.95 0 0 0 .164-.088l.008-.004c.056-.028.112-.058.168-.088l.006-.004.042-.022.176-.095.171-.094.007-.003a.378.378 0 0 1 .04-.022l.004-.002.127-.07v-.002a.402.402 0 0 0 .041-.022l.007-.003.166-.093.007-.004.04-.022.002-.002.127-.071.003-.002.04-.023.007-.004.166-.095.004-.003c.015-.007.028-.015.04-.023l.003-.001.125-.073.004-.002.04-.023.006-.004.165-.096.007-.004.16-.095.013-.008.034-.02.009-.006.117-.07.006-.004.04-.024.005-.002c.054-.034.109-.068.164-.1l.005-.003.167-.103.041-.026.003-.001q.357-.223.71-.45l.005-.002.039-.026.002-.001.33-.217h.002c.304-.201.603-.406.903-.614v-.002l.163-.113a42.784 42.784 0 0 0 15.322-19.733 10.666 10.666 0 0 0-6.181-13.76z"
          style="fill:#0784ff"/>
    <rect x="448" y="64" width="21.333" height="341.333" rx="10.667" ry="10.667" style="fill:#005eee"/>
    <rect x="106.667" y="426.667" width="320" height="21.333" rx="10.667" ry="10.667" style="fill:#ccd4ff"/>
    <rect x="213.333" y="85.333" width="128" height="42.667" rx="21.333" ry="21.333" style="fill:gold"/>
    <rect x="234.667" y="85.333" width="42.667" height="42.667" rx="21.333" ry="21.333" style="fill:#ffa300"/>
    <rect x="213.333" y="170.667" width="192" height="42.667" rx="21.333" ry="21.333" style="fill:gold"/>
    <rect x="256" y="170.667" width="85.333" height="42.667" rx="21.333" ry="21.333" style="fill:#ffa300"/>
    <rect x="341.333" y="320" width="64" height="21.333" rx="10.667" ry="10.667" style="fill:gold"/>
    <circle cx="138.667" cy="416" r="10.667" style="fill:#163969"/>
    <circle cx="160" cy="416" r="10.667" style="fill:#005eee"/>
</svg>